<?xml version="1.0" standalone="no"?>
<!DOCTYPE svg PUBLIC "-//W3C//DTD SVG 20010904//EN"
 "http://www.w3.org/TR/2001/REC-SVG-20010904/DTD/svg10.dtd">
<svg version="1.0" xmlns="http://www.w3.org/2000/svg"
 width="576.000000pt" height="576.000000pt" viewBox="0 0 576.000000 576.000000"
 preserveAspectRatio="xMidYMid meet">
<metadata>
Created by potrace 1.14, written by Peter Selinger 2001-2017
</metadata>
<g transform="translate(0.000000,576.000000) scale(0.100000,-0.100000)"
fill="#000000" stroke="none">
<path d="M1525 5266 c-38 -17 -85 -70 -86 -99 -1 -12 -1 -39 -1 -60 1 -26 -9
-54 -30 -90 -31 -53 -51 -87 -89 -154 -12 -21 -56 -99 -99 -173 -43 -74 -88
-153 -100 -175 -13 -22 -31 -53 -42 -70 -10 -16 -24 -42 -30 -57 -7 -16 -16
-28 -20 -28 -4 0 -8 -4 -8 -9 0 -5 -23 -49 -51 -98 -29 -48 -57 -98 -64 -111
-7 -13 -31 -39 -54 -58 -36 -32 -67 -93 -59 -121 2 -8 -22 -56 -59 -119 -10
-16 -38 -65 -63 -108 -25 -42 -49 -85 -55 -95 -196 -336 -286 -492 -312 -539
-23 -42 -43 -63 -75 -81 -121 -65 -120 -216 2 -279 18 -9 43 -35 55 -57 12
-22 52 -91 89 -153 36 -62 77 -132 90 -155 40 -73 170 -296 256 -442 75 -127
83 -145 84 -196 2 -74 51 -148 98 -149 14 0 61 -70 131 -200 22 -40 262 -457
311 -540 81 -137 92 -163 90 -217 -4 -91 61 -154 156 -149 30 1 58 10 80 26
l33 24 526 0 526 1 34 -25 c48 -35 132 -35 180 0 l34 24 534 0 c293 1 533 -1
533 -4 0 -12 57 -38 92 -43 86 -11 159 56 164 152 2 50 11 72 95 216 51 88
108 187 126 220 19 33 38 67 43 75 13 21 67 114 104 181 131 235 140 248 179
265 52 24 87 83 83 144 -2 40 5 59 67 165 39 66 79 135 89 155 11 19 35 60 54
91 19 31 34 62 34 68 0 6 5 11 10 11 6 0 10 4 10 10 0 5 22 47 49 92 27 46 58
99 69 118 11 19 44 78 74 130 78 137 87 148 124 166 55 26 79 69 79 139 0 71
-21 106 -76 131 -22 10 -45 31 -57 53 -10 20 -52 92 -92 161 -40 69 -81 141
-92 160 -11 19 -37 64 -58 100 -21 36 -47 81 -58 100 -10 19 -54 95 -96 167
-69 118 -77 137 -71 170 3 20 7 39 9 41 3 2 -3 24 -11 48 -17 49 -59 88 -108
98 -26 6 -40 24 -100 128 -38 67 -75 131 -82 143 -7 11 -15 27 -20 35 -4 8
-31 55 -60 103 -29 48 -53 89 -53 91 0 2 -37 66 -81 142 -45 76 -90 153 -99
169 -83 146 -84 148 -81 191 2 55 -22 107 -62 136 -46 33 -129 31 -182 -3
l-40 -26 -526 1 c-495 1 -527 2 -544 19 -27 27 -57 36 -108 32 -41 -3 -97 -28
-97 -44 0 -4 -240 -6 -532 -6 l-533 0 -31 24 c-39 28 -108 37 -149 17z m1265
-261 c41 -35 123 -37 170 -5 22 15 62 17 388 17 200 0 359 -3 355 -7 -4 -4
-87 -35 -183 -69 -304 -108 -345 -123 -365 -132 -11 -4 -103 -38 -205 -74
-102 -37 -205 -74 -230 -83 -25 -9 -47 -17 -50 -18 -3 0 -16 -5 -30 -11 -14
-5 -61 -22 -105 -37 -44 -15 -89 -32 -100 -36 -11 -5 -57 -22 -103 -38 -66
-24 -85 -28 -95 -18 -13 14 -286 300 -410 431 -42 44 -77 83 -77 86 0 3 231 6
513 6 400 0 515 -2 527 -12z m1199 -12 c-13 -15 -37 -41 -54 -58 -26 -27 -184
-194 -360 -380 -27 -29 -102 -108 -165 -176 -63 -67 -131 -139 -150 -159 -68
-71 -289 -306 -335 -355 l-46 -50 -82 86 c-45 47 -136 143 -202 213 -66 70
-157 166 -202 213 -46 48 -82 88 -80 89 4 5 492 182 807 294 80 28 161 57 180
65 50 19 126 47 270 99 69 24 186 66 260 93 74 27 146 50 159 51 l25 2 -25
-27z m-2266 -77 c40 -40 131 -136 202 -211 72 -76 154 -163 183 -193 61 -62
63 -59 -48 -97 -41 -14 -91 -32 -110 -40 -19 -7 -75 -28 -125 -45 -49 -17 -99
-35 -110 -40 -56 -23 -85 -31 -92 -27 -5 3 -8 163 -8 357 0 299 3 352 15 360
8 5 16 10 18 10 2 0 36 -33 75 -74z m2494 -69 c44 -78 146 -255 225 -393 80
-138 148 -257 151 -265 4 -8 18 -32 32 -54 14 -22 31 -51 37 -65 7 -14 18 -32
26 -41 7 -9 21 -44 31 -76 l18 -60 -83 -87 c-79 -84 -310 -324 -610 -635 -78
-80 -173 -179 -211 -219 l-69 -72 -124 132 c-69 72 -165 174 -215 226 -49 52
-110 116 -135 142 -25 26 -112 119 -195 205 -82 86 -150 163 -150 170 0 7 61
77 135 155 74 79 150 159 169 179 18 20 89 95 156 166 68 72 140 148 160 170
21 22 97 103 171 180 201 212 270 285 317 337 23 26 51 47 62 47 15 1 39 -32
102 -142z m-2682 -338 l0 -283 -115 -43 c-228 -83 -311 -113 -314 -113 -3 0
47 89 110 198 62 108 158 274 211 368 54 94 100 167 103 163 3 -4 5 -135 5
-290z m879 -322 c28 -30 103 -110 168 -178 64 -68 144 -153 177 -188 l61 -65
-32 -34 c-18 -20 -53 -56 -77 -81 -23 -25 -93 -99 -155 -164 -61 -65 -136
-144 -166 -176 -110 -115 -315 -334 -320 -340 -3 -3 -14 -14 -26 -24 -23 -19
-5 -35 -345 313 l-83 85 -1 413 c0 381 1 415 17 423 10 5 55 23 100 39 46 16
175 63 287 103 l205 74 69 -73 c38 -41 93 -98 121 -127z m-879 -408 c0 -192
-2 -349 -5 -349 -4 0 -83 80 -177 178 -95 97 -195 201 -223 230 -36 38 -50 58
-45 70 4 9 9 28 11 41 7 35 11 39 47 50 51 15 370 131 375 136 3 3 8 2 11 -1
3 -3 6 -162 6 -355z m-475 37 c14 -12 111 -112 215 -221 105 -109 206 -214
225 -234 l35 -35 0 -466 1 -465 -31 -32 c-16 -17 -86 -91 -155 -164 -69 -72
-143 -151 -165 -174 -160 -168 -156 -165 -175 -155 -15 8 -101 144 -160 255
-18 32 -114 200 -129 225 -6 8 -72 122 -147 253 -126 216 -138 242 -135 280 2
31 25 81 93 197 49 85 94 162 99 170 5 8 67 116 138 240 195 341 182 322 221
336 46 17 42 17 70 -10z m3746 -8 c-3 -13 -10 -45 -16 -73 -6 -27 -12 -60 -15
-73 -2 -13 -6 -31 -9 -40 -3 -9 -7 -28 -10 -42 -2 -14 -12 -61 -21 -105 -9
-44 -18 -89 -20 -100 -1 -11 -7 -38 -13 -60 -6 -22 -13 -53 -15 -70 -3 -16 -9
-48 -15 -70 -6 -22 -14 -56 -17 -75 -3 -19 -17 -85 -30 -147 -14 -61 -26 -122
-29 -135 -2 -13 -7 -34 -10 -48 -3 -14 -8 -36 -10 -50 -2 -14 -10 -47 -16 -75
-7 -27 -14 -59 -15 -70 -2 -11 -11 -54 -20 -95 -9 -41 -19 -86 -21 -100 -5
-22 -31 -146 -39 -180 -2 -8 -4 -24 -4 -35 -1 -21 1 -24 -288 281 -72 77 -159
168 -193 204 -34 36 -84 89 -112 119 l-50 54 60 61 c64 65 96 98 412 426 397
412 504 520 512 520 5 0 6 -10 4 -22z m106 -166 c18 -31 41 -70 51 -87 10 -16
23 -42 30 -57 6 -16 15 -28 19 -28 4 0 8 -4 8 -8 0 -5 61 -114 136 -243 75
-129 143 -247 152 -264 23 -45 13 -140 -17 -165 -4 -3 -22 -34 -40 -70 -19
-36 -37 -67 -40 -70 -3 -3 -13 -18 -22 -35 -10 -16 -31 -55 -49 -85 -17 -30
-34 -63 -37 -72 -3 -10 -9 -18 -14 -18 -5 0 -9 -5 -9 -11 0 -6 -23 -49 -52
-97 -28 -48 -67 -116 -86 -152 -19 -36 -40 -72 -47 -80 -7 -8 -14 -20 -16 -25
-2 -6 -28 -52 -58 -104 -62 -107 -84 -123 -120 -83 -13 15 -59 64 -102 109
-52 55 -77 88 -74 100 17 74 36 164 41 192 3 19 10 44 14 57 5 12 7 24 4 27
-2 2 0 15 5 29 5 14 12 41 15 61 3 20 15 80 27 133 11 53 22 104 24 113 2 9
11 52 20 96 9 44 19 91 21 105 3 14 7 33 10 42 6 20 12 52 20 98 3 19 8 38 10
41 2 3 6 21 9 40 4 28 12 64 20 99 5 21 25 120 29 140 2 14 11 57 20 95 9 39
18 84 21 100 3 17 7 35 9 40 1 6 6 31 10 57 5 26 12 45 17 43 4 -3 23 -31 41
-63z m-1736 -258 c78 -82 159 -167 179 -189 21 -22 106 -111 189 -198 83 -87
151 -165 151 -172 0 -12 -96 -115 -496 -529 -70 -72 -160 -166 -201 -208 -41
-43 -79 -78 -83 -78 -9 0 -55 47 -530 536 -137 142 -260 267 -272 278 -13 11
-23 24 -23 30 0 6 28 41 63 77 34 36 123 130 197 209 189 201 294 312 373 394
37 39 87 92 110 118 l42 47 80 -83 c44 -46 144 -150 221 -232z m-1380 -330
c93 -96 170 -181 172 -187 1 -7 -24 -40 -55 -73 -218 -232 -288 -303 -292
-298 -7 7 -8 734 0 734 3 0 82 -79 175 -176z m351 -361 c57 -60 177 -184 266
-277 89 -93 223 -232 297 -308 74 -77 138 -145 142 -152 5 -8 -24 -45 -77 -99
l-85 -87 -535 0 c-294 0 -536 3 -536 8 -1 4 -2 135 -3 292 l-1 284 25 31 c14
16 57 64 96 105 121 127 207 219 249 264 22 24 44 44 49 45 5 1 56 -47 113
-106z m1738 -59 c66 -70 140 -148 165 -174 25 -26 106 -112 180 -190 74 -79
150 -158 168 -176 17 -18 32 -41 32 -51 0 -10 -12 -75 -26 -145 l-27 -128
-619 0 -619 0 -85 86 -85 86 50 51 c27 29 80 84 118 123 37 39 161 168 274
285 113 118 237 247 275 286 38 40 71 73 74 73 3 0 59 -57 125 -126z m-2351
-606 c-1 -134 -2 -246 -3 -251 0 -4 -99 -6 -218 -5 -247 3 -251 5 -187 74 172
183 404 424 408 424 1 0 1 -109 0 -242z m3134 -238 c-3 -12 -24 -16 -106 -18
l-102 -3 6 38 c3 21 8 41 10 44 2 3 6 21 9 40 16 102 7 102 101 3 47 -49 83
-95 82 -104z m-1693 -18 c-30 -2 -80 -2 -110 0 l-55 3 52 56 53 56 58 -56 57
-56 -55 -3z m-1444 -89 c6 -34 2 -727 -3 -736 -6 -9 -8 -8 -8 1 0 8 -33 71
-74 140 -40 70 -83 144 -95 165 -35 63 -57 100 -90 155 -17 29 -31 54 -31 56
0 2 -18 34 -40 70 -22 36 -40 70 -40 75 0 5 -3 11 -7 13 -5 2 -16 18 -26 36
l-18 32 215 0 c119 0 217 -3 217 -7z m1027 -50 c-110 -114 -206 -213 -413
-428 -493 -512 -451 -472 -472 -452 -11 9 -25 17 -31 17 -6 0 -14 6 -19 13 -8
12 -13 871 -5 895 3 9 112 12 500 12 l496 0 -56 -57z m596 13 c22 -24 138
-144 256 -266 118 -122 250 -259 293 -304 44 -44 132 -136 198 -203 65 -67
115 -124 111 -126 -4 -3 -234 -4 -511 -4 -501 0 -505 0 -553 22 -54 25 -96 24
-143 -3 -29 -18 -63 -19 -508 -19 -350 0 -475 2 -470 11 4 6 53 58 109 116 56
58 121 126 145 151 24 25 145 151 269 278 124 128 259 268 300 312 l75 79 194
0 194 0 41 -44z m1202 27 c-7 -22 -66 -298 -71 -333 -2 -14 -11 -54 -19 -90
-8 -36 -17 -78 -20 -95 -22 -126 -61 -287 -78 -321 -34 -69 -49 -71 -105 -16
-45 46 -444 456 -643 662 -50 52 -117 121 -148 153 l-56 57 572 0 c541 0 573
-1 568 -17z m285 -15 c-88 -157 -315 -554 -318 -557 -6 -8 7 67 33 184 14 61
27 121 29 135 3 14 7 35 10 48 12 51 14 61 19 93 3 19 10 49 15 68 6 18 10 36
9 40 0 3 0 9 1 14 0 4 50 7 111 7 l110 0 -19 -32z"/>
</g>
</svg>
