<svg id="Layer_1" data-name="Layer 1" xmlns="http://www.w3.org/2000/svg" xmlns:xlink="http://www.w3.org/1999/xlink" viewBox="0 0 3710 3710"><defs><style>.cls-1{fill:none;}.cls-2,.cls-22{fill:#f4f7fa;}.cls-2{opacity:0.28;}.cls-3{fill:url(#linear-gradient);}.cls-26,.cls-34,.cls-4,.cls-6{fill:#fff;}.cls-11,.cls-16,.cls-17,.cls-28,.cls-4,.cls-44,.cls-46,.cls-47,.cls-51,.cls-58,.cls-61,.cls-8{opacity:0.3;}.cls-11,.cls-16,.cls-17,.cls-28,.cls-34,.cls-4,.cls-46,.cls-47,.cls-51,.cls-58,.cls-6,.cls-61,.cls-8{isolation:isolate;}.cls-5{fill:url(#linear-gradient-2);}.cls-6{opacity:0.5;}.cls-7{fill:url(#linear-gradient-3);}.cls-8{fill:url(#linear-gradient-4);}.cls-9{fill:url(#linear-gradient-5);}.cls-10{fill:url(#linear-gradient-6);}.cls-11{fill:url(#linear-gradient-7);}.cls-12{fill:url(#linear-gradient-8);}.cls-13{fill:url(#linear-gradient-9);}.cls-14{clip-path:url(#clip-path);}.cls-15{fill:url(#linear-gradient-10);}.cls-16{fill:url(#linear-gradient-11);}.cls-17{fill:url(#linear-gradient-12);}.cls-18{fill:url(#linear-gradient-13);}.cls-19{fill:url(#linear-gradient-14);}.cls-20{fill:url(#linear-gradient-15);}.cls-21{fill:url(#linear-gradient-16);}.cls-23{fill:url(#linear-gradient-17);}.cls-24{fill:url(#linear-gradient-18);}.cls-25{fill:url(#linear-gradient-19);}.cls-27{fill:url(#linear-gradient-20);}.cls-28{fill:url(#linear-gradient-21);}.cls-29{fill:url(#linear-gradient-22);}.cls-30{fill:#d8dee8;}.cls-31{fill:url(#linear-gradient-23);}.cls-32{fill:url(#linear-gradient-24);}.cls-33{fill:url(#linear-gradient-25);}.cls-34{opacity:0.48;}.cls-35{fill:url(#linear-gradient-26);}.cls-36{fill:url(#linear-gradient-27);}.cls-37{fill:url(#linear-gradient-28);}.cls-38{fill:url(#linear-gradient-29);}.cls-39{fill:url(#linear-gradient-30);}.cls-40{fill:url(#linear-gradient-31);}.cls-41{fill:url(#linear-gradient-32);}.cls-42{fill:url(#linear-gradient-33);}.cls-43{fill:url(#linear-gradient-34);}.cls-45{fill:url(#linear-gradient-35);}.cls-46{fill:url(#linear-gradient-36);}.cls-47{fill:url(#linear-gradient-37);}.cls-48{fill:url(#linear-gradient-38);}.cls-49{fill:url(#linear-gradient-39);}.cls-50{fill:url(#linear-gradient-40);}.cls-51{fill:url(#linear-gradient-41);}.cls-52{fill:url(#linear-gradient-42);}.cls-53{fill:url(#linear-gradient-43);}.cls-54{fill:url(#linear-gradient-44);}.cls-55{fill:url(#linear-gradient-45);}.cls-56{fill:url(#linear-gradient-46);}.cls-57{fill:url(#linear-gradient-47);}.cls-58{fill:url(#linear-gradient-48);}.cls-59{fill:url(#linear-gradient-49);}.cls-60{fill:url(#linear-gradient-50);}.cls-61{fill:url(#linear-gradient-51);}.cls-62{fill:url(#linear-gradient-52);}.cls-63{fill:url(#linear-gradient-53);}</style><linearGradient id="linear-gradient" x1="30.21" y1="2204" x2="0.22" y2="861.62" gradientTransform="matrix(-0.82, -0.23, 0.25, -0.89, 2422.57, 4213.7)" gradientUnits="userSpaceOnUse"><stop offset="0" stop-color="#aa80f9"/><stop offset="1" stop-color="#6165d7"/></linearGradient><linearGradient id="linear-gradient-2" x1="-51.59" y1="1358.53" x2="-591.55" y2="2310.95" gradientTransform="matrix(-0.82, -0.23, 0.25, -0.89, 2422.57, 4213.7)" gradientUnits="userSpaceOnUse"><stop offset="0" stop-color="#e38ddd"/><stop offset="1" stop-color="#9571f6"/></linearGradient><linearGradient id="linear-gradient-3" x1="736.96" y1="2791.6" x2="354.07" y2="2340.03" gradientTransform="matrix(0.95, -0.31, -0.31, -0.95, 1710.41, 4025.61)" gradientUnits="userSpaceOnUse"><stop offset="0" stop-color="#ffc444"/><stop offset="1" stop-color="#f36f56"/></linearGradient><linearGradient id="linear-gradient-4" x1="689.8" y1="2831.6" x2="306.87" y2="2379.99" xlink:href="#linear-gradient-3"/><linearGradient id="linear-gradient-5" x1="2350.87" y1="3113.62" x2="2041.5" y2="2748.76" gradientTransform="translate(4028.81 3266.75) rotate(161.93)" xlink:href="#linear-gradient-2"/><linearGradient id="linear-gradient-6" x1="913.79" y1="3620.15" x2="1267.18" y2="1665.51" gradientTransform="matrix(0.95, -0.31, -0.31, -0.95, 1710.41, 4025.61)" xlink:href="#linear-gradient"/><linearGradient id="linear-gradient-7" x1="792.89" y1="3616.61" x2="1150.69" y2="1637.58" gradientTransform="matrix(0.95, -0.31, -0.31, -0.95, 1710.41, 4025.61)" xlink:href="#linear-gradient"/><linearGradient id="linear-gradient-8" x1="1076.86" y1="3344.88" x2="372.95" y2="2514.72" gradientTransform="translate(3156.31 3636.77) rotate(180)" xlink:href="#linear-gradient-2"/><linearGradient id="linear-gradient-9" x1="1129.41" y1="2941.5" x2="450.81" y2="2924.2" gradientTransform="translate(4028.81 3266.75) rotate(161.93)" gradientUnits="userSpaceOnUse"><stop offset="0" stop-color="#311944"/><stop offset="1" stop-color="#893976"/></linearGradient><clipPath id="clip-path"><path class="cls-1" d="M2630.07,1313.56c35.32-11.55,65.15-37.66,88.71-77.83,24-40.76,40.35-93.75,48.73-157.48,17.57-134-2.39-298.41-56.29-463s-135-309-228.47-406.64c-44.46-46.45-89-79.45-132.46-98.14-42.68-18.38-82.21-21.82-117.52-10.27s-65.14,37.73-88.69,77.83c-24,40.76-40.37,93.75-48.75,157.48-17.57,134,2.39,298.41,56.29,463s135.05,309,228.48,406.65c44.44,46.45,89,79.45,132.43,98.14C2555.23,1321.67,2594.77,1325.1,2630.07,1313.56Z"/></clipPath><linearGradient id="linear-gradient-10" x1="1386.85" y1="3558.4" x2="1617.58" y2="2282.17" xlink:href="#linear-gradient-3"/><linearGradient id="linear-gradient-11" x1="1519.87" y1="3393.98" x2="1690.11" y2="2452.32" xlink:href="#linear-gradient-3"/><linearGradient id="linear-gradient-12" x1="3117.46" y1="2991.93" x2="3641.19" y2="2529.25" gradientTransform="translate(6737.49 2379.77) rotate(161.93)" xlink:href="#linear-gradient-2"/><linearGradient id="linear-gradient-13" x1="2918.8" y1="3274.95" x2="3350.53" y2="3051.2" gradientTransform="translate(6737.49 2379.77) rotate(161.93)" gradientUnits="userSpaceOnUse"><stop offset="0" stop-color="#ff9085"/><stop offset="1" stop-color="#fb6fbb"/></linearGradient><linearGradient id="linear-gradient-14" x1="2993.6" y1="3050.23" x2="3495.07" y2="2607.22" gradientTransform="translate(6737.49 2379.77) rotate(161.93)" xlink:href="#linear-gradient-2"/><linearGradient id="linear-gradient-15" x1="2825" y1="3123.93" x2="3301.63" y2="2876.89" xlink:href="#linear-gradient-13"/><linearGradient id="linear-gradient-16" x1="3080.2" y1="2875.24" x2="3690.08" y2="2336.44" gradientTransform="translate(6737.49 2379.77) rotate(161.93)" xlink:href="#linear-gradient"/><linearGradient id="linear-gradient-17" x1="1607.79" y1="315.33" x2="1367.54" y2="214.43" gradientTransform="matrix(1, 0, 0, -1, 0, 3710)" gradientUnits="userSpaceOnUse"><stop offset="0" stop-color="#40447e"/><stop offset="1" stop-color="#3c3b6b"/></linearGradient><linearGradient id="linear-gradient-18" x1="1286.97" y1="1374.21" x2="1026.24" y2="1264.71" xlink:href="#linear-gradient-17"/><linearGradient id="linear-gradient-19" x1="163.14" y1="1314.91" x2="2579.46" y2="1314.91" xlink:href="#linear-gradient-17"/><linearGradient id="linear-gradient-20" x1="163.16" y1="421.39" x2="3583.17" y2="421.39" xlink:href="#linear-gradient-17"/><linearGradient id="linear-gradient-21" x1="498.58" y1="449.41" x2="3004.39" y2="449.41" xlink:href="#linear-gradient-17"/><linearGradient id="linear-gradient-22" x1="1946.29" y1="2560.79" x2="663.59" y2="1184.54" gradientTransform="matrix(1, 0, 0, -1, 0, 3710)" xlink:href="#linear-gradient"/><linearGradient id="linear-gradient-23" x1="360.5" y1="1965.55" x2="422.47" y2="1965.55" gradientTransform="matrix(1, 0, 0, -1, 0, 3710)" gradientUnits="userSpaceOnUse"><stop offset="0" stop-color="#444b8c"/><stop offset="1" stop-color="#26264f"/></linearGradient><linearGradient id="linear-gradient-24" x1="472.98" y1="1966.2" x2="534.38" y2="1966.2" xlink:href="#linear-gradient-23"/><linearGradient id="linear-gradient-25" x1="584.43" y1="1966.84" x2="645.27" y2="1966.84" xlink:href="#linear-gradient-23"/><linearGradient id="linear-gradient-26" x1="2350.54" y1="1701.82" x2="1281.44" y2="-102.28" gradientTransform="matrix(1, 0, 0, -1, 0, 3710)" gradientUnits="userSpaceOnUse"><stop offset="0" stop-color="#ab316d"/><stop offset="1" stop-color="#792d3d"/></linearGradient><linearGradient id="linear-gradient-27" x1="2765.34" y1="1694.67" x2="2798.65" y2="1751.3" xlink:href="#linear-gradient-26"/><linearGradient id="linear-gradient-28" x1="3501.24" y1="2314.98" x2="3461.26" y2="1968.51" xlink:href="#linear-gradient-26"/><linearGradient id="linear-gradient-29" x1="3519.59" y1="2001.42" x2="3599.54" y2="2587.77" xlink:href="#linear-gradient-26"/><linearGradient id="linear-gradient-30" x1="2189.23" y1="1619.14" x2="1799.45" y2="902.85" gradientTransform="matrix(1, 0, 0, -1, 0, 3710)" xlink:href="#linear-gradient-13"/><linearGradient id="linear-gradient-31" x1="980.77" y1="969.65" x2="254.18" y2="-152.36" gradientTransform="matrix(1, 0, 0, -1, 0, 3710)" xlink:href="#linear-gradient-13"/><linearGradient id="linear-gradient-32" x1="1896.05" y1="996.37" x2="371.88" y2="726.51" gradientTransform="matrix(1, 0, 0, -1, 0, 3710)" xlink:href="#linear-gradient-13"/><linearGradient id="linear-gradient-33" x1="2565.69" y1="1734.31" x2="2535.7" y2="1441.14" gradientTransform="matrix(1, 0, 0, -1, 0, 3710)" xlink:href="#linear-gradient-13"/><linearGradient id="linear-gradient-34" x1="2960.31" y1="1681.29" x2="3586.64" y2="2477.53" gradientTransform="matrix(1, 0, 0, -1, 0, 3710)" xlink:href="#linear-gradient-13"/><linearGradient id="linear-gradient-35" x1="2159.31" y1="1635.42" x2="1769.53" y2="919.13" gradientTransform="matrix(1, 0, 0, -1, 0, 3710)" xlink:href="#linear-gradient-13"/><linearGradient id="linear-gradient-36" x1="2634.74" y1="1694.02" x2="2525.65" y2="1493.55" gradientTransform="matrix(1, 0, 0, -1, 0, 3710)" xlink:href="#linear-gradient-13"/><linearGradient id="linear-gradient-37" x1="949.95" y1="989.6" x2="223.36" y2="-132.41" gradientTransform="matrix(1, 0, 0, -1, 0, 3710)" xlink:href="#linear-gradient-13"/><linearGradient id="linear-gradient-38" x1="2949.04" y1="1251.94" x2="3190.43" y2="1251.94" gradientTransform="translate(4568.22 3710) rotate(180)" xlink:href="#linear-gradient-3"/><linearGradient id="linear-gradient-39" x1="3534.88" y1="798.66" x2="4003.04" y2="798.66" gradientTransform="translate(5569.81 3710) rotate(180)" xlink:href="#linear-gradient"/><linearGradient id="linear-gradient-40" x1="2368.89" y1="35.87" x2="2389.13" y2="-328.38" gradientTransform="matrix(0.96, 0.29, 0.29, -0.96, -652.69, 2778.49)" xlink:href="#linear-gradient-2"/><linearGradient id="linear-gradient-41" x1="3754.94" y1="780.98" x2="4223.11" y2="780.98" gradientTransform="translate(5569.81 3710) rotate(180)" xlink:href="#linear-gradient"/><linearGradient id="linear-gradient-42" x1="7899.81" y1="169.59" x2="7930.27" y2="169.59" gradientTransform="translate(9506.78 3710) rotate(180)" gradientUnits="userSpaceOnUse"><stop offset="0" stop-color="#311944"/><stop offset="1" stop-color="#a03976"/></linearGradient><linearGradient id="linear-gradient-43" x1="3784.85" y1="1089.32" x2="4204.61" y2="579.29" gradientTransform="translate(5569.81 3710) rotate(180)" xlink:href="#linear-gradient"/><linearGradient id="linear-gradient-44" x1="5017.87" y1="1642.62" x2="4462.69" y2="1177.72" gradientTransform="matrix(-1, -0.05, 0.05, -1, 5551.45, 3814.67)" xlink:href="#linear-gradient-23"/><linearGradient id="linear-gradient-45" x1="-1513.38" y1="1074.21" x2="-1062.53" y2="1479.57" gradientTransform="matrix(1, 0, 0, -1, 2574.76, 3710)" xlink:href="#linear-gradient-3"/><linearGradient id="linear-gradient-46" x1="8157.2" y1="1539.46" x2="8316.17" y2="1539.46" xlink:href="#linear-gradient-42"/><linearGradient id="linear-gradient-47" x1="8177.32" y1="1127.52" x2="8173.89" y2="1441.23" xlink:href="#linear-gradient-42"/><linearGradient id="linear-gradient-48" x1="-1498.59" y1="1057.76" x2="-1047.73" y2="1463.12" gradientTransform="matrix(1, 0, 0, -1, 2574.76, 3710)" xlink:href="#linear-gradient-3"/><linearGradient id="linear-gradient-49" x1="-1349.94" y1="993.39" x2="-939.87" y2="993.39" gradientTransform="matrix(1, 0, 0, -1, 2574.76, 3710)" xlink:href="#linear-gradient-23"/><linearGradient id="linear-gradient-50" x1="-1154.99" y1="1101.09" x2="-592.12" y2="1101.09" gradientTransform="matrix(1, 0, 0, -1, 2574.76, 3710)" xlink:href="#linear-gradient-23"/><linearGradient id="linear-gradient-51" x1="5561.77" y1="1250.43" x2="5830.63" y2="983.72" gradientTransform="translate(7413.03 3710) rotate(180)" xlink:href="#linear-gradient-23"/><linearGradient id="linear-gradient-52" x1="-1326.55" y1="1077.24" x2="-1670.87" y2="1416.05" gradientTransform="matrix(1, 0, 0, -1, 2574.76, 3710)" xlink:href="#linear-gradient-3"/><linearGradient id="linear-gradient-53" x1="1239.14" y1="1118.38" x2="1350.5" y2="1040.43" gradientTransform="matrix(1, 0, 0, -1, 0, 3710)" xlink:href="#linear-gradient-42"/></defs><g id="Illustration"><circle class="cls-2" cx="1855" cy="1855" r="1828.71"/><path class="cls-3" d="M2513,3105.58c-49.32-32.46,70.17-324.29,177.91-517.27,88.47-158.49,192.58-292.5,222.63-277,23,11.85-5.82,106.93,15.07,114.52,28,10.15,86.78-158,144-152.33,35.22,3.48,65.66,72.52,66.8,136,2.05,114.46-91.64,190.28-295.42,389.16C2582.73,3053.37,2538.33,3122.29,2513,3105.58Z"/><path class="cls-4" d="M2597,2917c27.47-82.32,25.11-134.86,75.07-188.08,43.65-46.45,70.6-33.21,122.08-87,58.3-60.87,37.91-92.72,86.75-139.87,67.79-65.45,133.06-29.06,190.53-87.88,18.18-18.6,36.91-48.09,46.06-97.52,12.81,25.92,21.19,60.09,21.78,92.8,2,114.47-91.64,190.29-295.42,389.16-261.11,254.83-305.55,323.71-330.93,307-3.85-2.51-6.68-6.67-8.56-12.21C2553.89,3026.08,2581,2964.91,2597,2917Z"/><path class="cls-5" d="M2418.59,3254.93C2524,3019.48,2643.29,2851.14,2733,2741.5c201.6-246.75,299.73-254.54,342.78-251.25,57.37,4.38,131.05,37.14,142.38,92.1,21.19,102.82-185.22,237.89-162.69,276.72,11.66,20.09,68.69-13.05,91.72,13.26,31.48,36-29.58,150.05-46,177.55C2974.2,3262.45,2554,3259.76,2418.59,3254.93Z"/><path class="cls-6" d="M2621.74,3075c94.51-60.59,122.76-54.53,173.5-110.59,93.57-103.38,59.3-192.26,146-258.51,61.83-47.24,97.78-16.22,184.53-66.16a365.83,365.83,0,0,0,87.88-71.48,74.91,74.91,0,0,1,4.47,14.11c21.19,102.82-185.23,237.9-162.69,276.73,11.66,20.08,68.69-13.06,91.71,13.25,31.48,36-29.58,150-46,177.56-126.94,212.59-547.1,209.9-682.55,205.07,1.92-4.29,3.85-8.52,5.79-12.77C2499.89,3160.4,2569.63,3108.37,2621.74,3075Z"/><path class="cls-7" d="M1697.07,1817c-48,12.38-102.11-2.86-136.22-42.47L1079.9,1216c-43.78-50.85-38-126.54,13.23-169.47,51.56-43.22,153.24-45.5,197.87,5.77l490.21,563.2c46.21,53.1,38.92,130.1-16.07,171.59C1751.64,1797.32,1712.91,1812.87,1697.07,1817Z"/><path class="cls-8" d="M1093.16,1046.55c51.56-43.22,153.24-45.5,197.87,5.77l448.15,515c-45.82,3-95.53,20.34-157.34-6-102.94-43.94-93-146.64-182.55-205.88-41-27.09-107.16-48-220-23.85l-99.39-115.4C1036.14,1165.16,1042,1089.48,1093.16,1046.55Z"/><path class="cls-9" d="M889.08,971.3a56.64,56.64,0,0,1,7-1.77l165.82-56.31,141.69,432.69-161.41,50.41a53.77,53.77,0,0,1-12.09,5.73c-57,18.68-134.84-62.61-173.79-181.56S832.05,990,889.08,971.3Z"/><path class="cls-10" d="M1061.94,913.22c-15.86,164.71,31.16,308.28,141.69,432.69l1368.17-7.36L2186.91,120Z"/><path class="cls-11" d="M2120.76,1091c-132.3-6-224.79-164.83-363.31-125.82-108.69,30.59-106.91,145.28-215.63,168.45-111.31,23.71-167.34-86.32-301.15-87.75-60.84-.64-117,21.54-167.45,55.46q31,132.73,130.41,244.57l1368.17-7.36L2363.55,950.19C2264.82,1061.36,2184.89,1093.94,2120.76,1091Z"/><ellipse class="cls-12" cx="2431.41" cy="706.97" rx="316.84" ry="660.8" transform="translate(-99.28 791.69) rotate(-18.13)"/><path class="cls-13" d="M2630.07,1313.56c35.32-11.55,65.15-37.66,88.71-77.83,24-40.76,40.35-93.75,48.73-157.48,17.57-134-2.39-298.41-56.29-463s-135-309-228.47-406.64c-44.46-46.45-89-79.45-132.46-98.14-42.68-18.38-82.21-21.82-117.52-10.27s-65.14,37.73-88.69,77.83c-24,40.76-40.37,93.75-48.75,157.48-7.35,56-8.14,117.36-2.63,181.81,7.68,89.71,92.78,158.1,124.15,253.88,33.36,101.86,11.91,223.32,62.58,303.39,31.22,49.35,65.06,93.38,100.69,130.56,44.44,46.45,89,79.45,132.44,98.14C2555.23,1321.67,2594.77,1325.1,2630.07,1313.56Z"/><g class="cls-14"><path class="cls-15" d="M2458.89,707c52.1,159.1-11.88,319.92-141.06,358.66-127.18,38.12-269.9-56.78-320.55-211.45s8.79-314.06,134.55-356.58C2259.55,454.45,2406.8,547.91,2458.89,707Z"/><path class="cls-16" d="M2437.8,711.06c38.69,118.14,18.08,228.76-45.19,246.8-62.24,17.77-142.48-61.12-180.08-176s-19.2-224.78,42-245.81C2316.68,514.7,2399.12,592.9,2437.8,711.06Z"/></g><path class="cls-17" d="M2531.05,687.86l393.61-111.29c32.09-9.07,65.28,4.26,73.65,29.91h0c8.4,25.64-11.29,53.32-43.64,61.72l-396.31,103c-26.37,6.86-53.54-6.09-61-28.88h0C2489.91,719.64,2504.87,695.27,2531.05,687.86Z"/><path class="cls-18" d="M2439.21,460.65l448.09-155c37.56-13,77.32,3.15,88.17,36.27h0c10.84,33.11-11.64,69.76-49.56,81.59L2473.46,565.22c-29.32,9.18-60.26-6.55-69.59-35h0C2394.56,501.78,2410.19,470.7,2439.21,460.65Z"/><path class="cls-19" d="M2646.92,586.8l371.42-109.21c30.2-8.88,61.61,4,69.76,28.93h0c8.16,24.91-10.2,51.88-40.6,60.11L2673.52,668c-25,6.77-50.84-5.79-58.11-28h0C2608.15,617.91,2622.13,594.1,2646.92,586.8Z"/><path class="cls-20" d="M2992.85,335.46c10.9,33.27,49.25,51,86.31,39.45,37.8-11.8,59.84-49.47,48.56-83.93s-51.3-51.67-88.69-38.66C3002.34,265.07,2982,302.19,2992.85,335.46Z"/><path class="cls-21" d="M2537.67,805.31l475.67-116.1c39.93-9.74,81.82,9.5,92.83,43.14h0c11,33.65-13.3,68-53.62,76.57L2572.39,911.28c-31,6.63-63.48-11.47-72.92-40.3h0C2490,842.18,2506.92,812.82,2537.67,805.31Z"/><path class="cls-22" d="M2980.35,761.61c8.27,25.25,39.51,40.41,70.16,33.77,31.12-6.74,49.81-33.31,41.31-59.24s-40.76-40.86-71.65-33.43C2989.73,710,2972.08,736.34,2980.35,761.61Z"/><path class="cls-23" d="M3583.19,3263.19l-3420-29.78v88.13c0,23.93,14.91,44.26,35.15,47.89L1165.4,3543a132.75,132.75,0,0,0,34.7,1.63l2346-197.87c20.95-1.77,37.17-22.16,37.17-46.74Z"/><path class="cls-24" d="M2482.24,3120.33,200.82,3281.56c-40.82,2.88-74.06-27.77-74.06-68.48V1582.14a73.89,73.89,0,0,1,74.06-73.71H2482.24c33.65,0,60.84,29.82,60.84,66.63V3049.39C2543.08,3086.2,2515.89,3118,2482.24,3120.33Z"/><path class="cls-25" d="M2518.62,3120.33,237.2,3281.56c-40.82,2.88-74.06-27.77-74.06-68.48V1582.14a73.89,73.89,0,0,1,74.06-73.71H2518.62c33.63,0,60.84,29.82,60.84,66.63V3049.39C2579.46,3086.2,2552.25,3118,2518.62,3120.33Z"/><path class="cls-26" d="M2447.55,3016.39,322.65,3156.44c-33.22,2.18-60.25-23-60.25-56.22V1672.34a60.53,60.53,0,0,1,60.25-60.42l2124.9-8.79c27.75-.11,50.21,24.33,50.21,54.61V2958.29C2497.73,2988.54,2475.3,3014.56,2447.55,3016.39Z"/><path class="cls-26" d="M1458.55,1553c0,15.15-11.74,27.47-26.24,27.52s-26.36-12.24-26.36-27.43,11.78-27.51,26.36-27.52S1458.55,1537.88,1458.55,1553Z"/><path class="cls-27" d="M2461.69,3113,163.16,3282.72l1002.19,179.86a133.18,133.18,0,0,0,34.7,1.62l2383.12-201-1084.93-149A174.51,174.51,0,0,0,2461.69,3113Z"/><polygon class="cls-28" points="498.58 3286.99 2412.16 3143.6 3004.39 3224.29 1107.29 3377.58 498.58 3286.99"/><path class="cls-29" d="M2498,1879.2,262.21,1907V1654.4a51.28,51.28,0,0,1,51.28-51.28H2446.72A51.28,51.28,0,0,1,2498,1654.4h0Z"/><polygon class="cls-30" points="1663.91 2555.87 399.81 2608.09 399.81 2010.98 1663.91 1989.77 1663.91 2555.87"/><polygon class="cls-30" points="2383.15 2526.14 1738.45 2552.78 1738.45 1988.52 2383.15 1977.71 2383.15 2526.14"/><polygon class="cls-30" points="2383.15 2933.22 399.81 3051.32 399.81 2686.07 2383.15 2597.76 2383.15 2933.22"/><path class="cls-31" d="M422.47,1744.27c0,15.9-13.81,28.87-31,29s-31-12.71-31-28.64,13.9-28.87,31-29S422.47,1728.37,422.47,1744.27Z"/><path class="cls-32" d="M534.38,1743.63c0,15.54-13.71,28.23-30.65,28.34S473,1759.56,473,1744s13.81-28.27,30.75-28.35S534.38,1728.06,534.38,1743.63Z"/><path class="cls-33" d="M645.27,1743c0,15.46-13.59,28.09-30.38,28.2s-30.46-12.35-30.46-27.85,13.65-28.15,30.46-28.22S645.27,1727.51,645.27,1743Z"/><path class="cls-34" d="M1969,2673c-175.88-94.63-314.16,25.28-447.62-93-80.92-71.71-41.2-125.2-140.76-232.38-110.27-118.72-182-78.81-292.88-185.67-140.06-135.1-70-240.21-190.74-337.21-146.44-117.66-304.35-8.79-443.74-121.6-60.12-48.67-93.08-119.42-110.33-194.74H206.5a43.29,43.29,0,0,0-43.31,43.25V3242.3c0,23.85,19.41,41.89,43.31,40.17l2325.14-165c11.4-.8,21.52-7.53,28-17.12-170.21-6.2-274.78-63.27-341.62-122.25C2087.28,2862.68,2110,2748.89,1969,2673Z"/><path class="cls-35" d="M3420.8,1832l-254.5,416.37-776.36-8.78L2045.61,2905.7l-888.94,31.1L695.4,3647.58a48.81,48.81,0,0,1-36.85,22.08l-60.26,5.08c-27.34,4.31-85.74-4-76.83-30.23l312.43-706.83,257-115,864.23-33,327-654.89,794.17-8.79,266.13-404.32Z"/><polygon class="cls-36" points="2947.4 1859.95 2804.7 1794.34 2963.73 1761.95 2947.4 1859.95"/><polygon class="cls-37" points="3491.02 1721.72 3565.68 1831.95 3400.02 1831.95 3344.04 1761.95 3491.02 1721.72"/><polygon class="cls-38" points="3583.19 1339.61 3513.98 1288.33 3484.02 1703.63 3513.98 1757.01 3565.68 1831.95 3583.19 1339.61"/><polygon class="cls-39" points="1638.28 2741.71 1996.73 2839.65 2341.06 2173.48 1982.61 2075.54 1638.28 2741.71"/><path class="cls-40" d="M264.19,3597.45l268.35,73.33a67.61,67.61,0,0,0,74.5-28.41l500.74-771.61-358.45-97.92L245.69,3548.93a32.15,32.15,0,0,0,18.5,48.52Z"/><polygon class="cls-41" points="749.33 2772.82 1107.78 2870.76 1996.73 2839.65 1638.28 2741.71 749.33 2772.82"/><polygon class="cls-42" points="1982.61 2075.54 2341.06 2173.48 3117.42 2182.24 2758.97 2084.3 1982.61 2075.54"/><polygon class="cls-43" points="2804.7 1794.34 2940.57 1787.19 2758.97 2084.3 3117.42 2182.24 3372.78 1764.44 3513.98 1757.01 3513.98 1288.33 2804.7 1794.34"/><g class="cls-44"><path class="cls-45" d="M1763.39,2717.56c103-82.69,196.47-32.38,262.36-99.95,56.34-57.75-2-104.86,62.47-247.37,52.47-116,129.42-169.47,144.93-179.9a368,368,0,0,1,56.2-31l-306.73-83.82-344.33,666.17,80,21.84A277,277,0,0,1,1763.39,2717.56Z"/></g><path class="cls-46" d="M2385.54,2092.89c-65.55,4.48-77.31,7-77.45,10-.43,9.2,104.83,27.19,212.39,30,95.71,2.51,112.43-9.15,214.88-2.51,66.68,4.33,111.35,12.62,112.44,7.53,1.25-6.15-60.68-28.8-127.43-42.48C2629.47,2076.76,2546.93,2081.88,2385.54,2092.89Z"/><path class="cls-47" d="M564,3264.76c55.44-90.38,75.89-182.6,172.41-227.38,73.92-34.3,124.19-9.13,189.9-52.47,51.15-33.75,78.86-87.41,94.6-137.88l-271.66-74.21L265.65,3518.18C432.65,3437.17,517.28,3341,564,3264.76Z"/><path class="cls-48" d="M1418.09,2207.52c30.41-8.87,71,46.94,104.8,93.34,50.52,69.41,109.55,150.52,93.65,247.9-15.65,95.81-97.78,170.43-121.2,159.76-20.08-9.13,18.48-73.58-11-159.76-23.85-69.55-63.22-69.58-89.67-137.76C1361.89,2326.38,1380.72,2218.45,1418.09,2207.52Z"/><path class="cls-49" d="M1433.14,2648.84c156.56,38,259.67,99,319.9,142.18,32.64,23.39,47.7,38,55.85,59.24,46.37,121.18-191.89,304.39-217.27,323.58l-33.28-77.58c24.63-135.14,65.61-177.53,99.91-190.14,9.59-3.53,25.7-7.3,25.4-11.85-.74-10.73-91.24,4.56-177.74-27.08-86.24-31.55-172.87-111.39-157.4-164.18C1351.33,2693.42,1363.14,2665.52,1433.14,2648.84Z"/><path class="cls-50" d="M1584.94,3534.5s-14.58,5.18-14.63,16.7,14.77,62.3,30.86,80.35,17.57-8.87,16.55-26.2-5.23-56.15-9.21-63.65S1584.94,3534.5,1584.94,3534.5Z"/><path class="cls-51" d="M1631.79,2826c28.44-.57,95.09-5.88,112.84,27.07,14.8,27.5-11.13,69.16-27.09,94.8-43.36,69.67-85.45,76.8-115.09,119.6-11.47,16.57-21.88,39.71-25.18,72.81l-18.83-43.93c24.63-135.14,65.61-177.53,99.91-190.14,9.59-3.52,25.7-7.3,25.4-11.85-.74-10.73-91.24,4.56-177.74-27.07-78.6-28.78-157.29-97.61-158.92-149.55C1471.47,2806.94,1565.17,2827.31,1631.79,2826Z"/><path class="cls-52" d="M1576.55,3485.54c.86,17.75,2.36,32.64,3.77,43.63,3,24.39,5.77,34,9.56,42.84,3.31,7.67,11.57,24.37,15.51,23.22s-.13-19.7-3.24-71.19c-.45-7.47-1.83-31.27-1.83-31.27h0Z"/><path class="cls-53" d="M1342.86,2659a703.92,703.92,0,0,1,182.8,158c40.17,49.29,101.32,124.28,123.45,236.08,11.8,59.59,6,113.06-6.09,217.54a2190.66,2190.66,0,0,1-42.68,246l-20.81,8.36c-18.58-34.14-42.88-88.18-51.6-157.27-14.24-113.06,28-149,7.74-229.15-17.58-69.45-68.53-112-170.43-197.21-83.73-70-160.93-111.49-189.56-198.78-4.87-14.81-9-33-1.08-49.65C1191.67,2657,1257.08,2644.46,1342.86,2659Z"/><path class="cls-54" d="M1270.86,2214c23.42-5,61.92-4,98.62-32.94,11-8.7,50.22-39.53,45.45-83.64-4.18-38.83-41-59.71-45.51-62.19-26.05-14.34-52-11.15-80.83-7.21-37.36,5.1-49.76,15.3-75.72,22.31-64.21,17.31-85.93-18.83-150.64-15.78-82.64,3.9-89.79,64.93-159.31,66.46-78,1.7-93-74.68-170.07-87.63-107-18-268.81,97.18-265.54,229.93,1.88,76.67,59,164.53,131.88,190.9,42.51,15.38,88.37,10.5,101.46,38.14,9.32,19.67-11.62,34.82-9.64,69,2.51,44.19,40.58,75.2,46.72,80.19,57,46.45,184.87,23,272.17-42.75C1167.39,2460.26,1143.56,2241.38,1270.86,2214Z"/><path class="cls-55" d="M1090,2198.24a1673.29,1673.29,0,0,1,182.15-12.44c143.61-2,164.17,16.31,169.47,29.73,9.81,25.11-7,37.66,2.51,81.6,5.71,26.2.32,38.14,11.3,66.28,10.75,27.43,2.31,42.18-7.19,106.51-12.14,82.26-17.75,124.06,5.27,157.22,16,23,33.89,25,32.17,35.94-3.62,23.31-84.24,10.45-186.31,55.23-29.55,13-56.76,28.94-79.56,42.32-53.41,31.38-63.29,43.35-88,57.56-78.21,44.91-195.69,49.24-257.27-5-23-20.26-39.69-50-32.16-60.93,10.26-14.84,56.1,18.83,98.17-1.69,27.88-13.63,22.59-35.66,54.8-61.63,38.78-31.24,65.73-14.88,92.13-35.15,41.18-31.72,22.45-107.66,10.89-235A2130.49,2130.49,0,0,1,1090,2198.24Z"/><path class="cls-56" d="M1245.44,2168.68c-19.59,12.16-51.25,28-54.74,32.35s95.92,21.35,157.77-9.89c0,0,9.59-5.32-27.69-12.78-8-1.59-6.39-17-5.34-33l-7.45-13.81S1265,2156.5,1245.44,2168.68Z"/><path class="cls-57" d="M1294.85,2122s-7.68,32.64,21,48.7c25.71,14.43,69.19-44.71,61.07-66.68-2.71-7.33-12.39-16.76-22.51-19.92-7.12-2.22-34-1.37-45.55,21.34-3-6.62-8.44-10-12.07-9-4.6,1.37-5.28,9.76-5.45,11.66A23.55,23.55,0,0,0,1294.85,2122Z"/><path class="cls-58" d="M1339.36,2644.53c-29.58,12.26-33.57,38.74-74.46,53.77-39,14.34-52.1-3.63-91,8.27-58.43,17.88-80.78,74.27-89.62,68.95-8.11-4.87-.32-58.82,37.22-93.76,43.15-40.18,89.61-21.76,117.2-63.42,10.75-16.22,19-42.12,9.66-62.06-12.7-27-45.86-17.63-63.42-40-31.58-40.17,42.3-112.53,22-173.73-8.08-24.41-33.8-55-116.74-75.52,1.13,61.35,4.67,112.61,8.19,151.54,11.56,127.31,30.29,203.26-10.88,235-26.36,20.33-53.35,4-92.13,35.15-32.22,26-26.93,48-54.81,61.63-42.06,20.56-87.87-13.15-98.17,1.69-7.53,10.9,9.21,40.68,32.17,60.94,61.51,54.33,179.06,50,257.27,5,24.73-14.21,34.61-26.2,88-57.56,22.8-13.38,50-29.35,79.55-42.32,71.63-31.38,132.65-34.44,164-41.52C1401.22,2635.27,1363.36,2634.58,1339.36,2644.53Z"/><path class="cls-59" d="M1624.78,2686.14l-375.17,18.25a15.7,15.7,0,0,0-12.55,7.41l-10.4,16.65a12.19,12.19,0,0,0,10.81,18.62l397.42-15.14Z"/><path class="cls-60" d="M1969.21,2478.85l-387.6,7.54a32.49,32.49,0,0,0-27.62,16.43L1419.77,2739l409.36-16.32a33.29,33.29,0,0,0,27.26-16.18l124.38-207.76a13.12,13.12,0,0,0-11.56-19.86Z"/><path class="cls-61" d="M1554,2502.82a32.49,32.49,0,0,1,27.61-16.45l8.49-.16c1.26,12.55,5.11,23.95,12.77,33.19,23.85,28.87,63.61,11.06,93.19,41.59,32.52,33.53,2.51,73.46,31.55,104.67,30.61,32.85,80.08,6.1,137,27.13l-8.19,13.68a33.31,33.31,0,0,1-27.27,16.18L1419.71,2739Z"/><path class="cls-62" d="M1311.07,2686.32q6.29-16.72,12.68-33.49c-46.72-12.8-111.35-31.73-177.63-55.42-16.32-5.85-22.37-13.41-26.75-19.22-34-45.08,52.5-124.58,50.94-227.76-1.07-71.55-44.43-153.31-82.62-154.24C1010,2194.29,838.8,2523.83,983,2664.43,1054.59,2734.25,1188.31,2742.38,1311.07,2686.32Z"/><path class="cls-63" d="M1323.75,2652.83c29.34-15.58,64.45.39,66.71,1.47a87.75,87.75,0,0,1,25.31,18.14c1.07,1.46,13.81,19.09,9.15,24.74-3.77,4.54-18.1.78-35.4-10a134.17,134.17,0,0,0-31-.76c-23.75,2.19-34.62,9.69-43.24,3.22-6.28-4.74-8.46-14.76-6.19-22.22C1311.56,2659.45,1318.78,2655.48,1323.75,2652.83Z"/></g></svg>